 <svg width="100" height="100" xmlns="http://www.w3.org/2000/svg">
    <g fill="black" stroke="black" stroke-width="5">
        <g transform="translate(10,10)">
            <g transform="translate(-1.5,-2) scale(.08)">
                <polygon points="50 15, 100 100, 0 100"/>
            </g>
        </g>
        <g transform="translate(45,20)">
            <g transform="translate(-1.5,-2) scale(.08)">
                <polygon points="50 15, 100 100, 0 100"/>
            </g>
        </g>
        <g transform="translate(80,10)">
            <g transform="translate(-1.5,-2) scale(.08)">
                <polygon points="50 15, 100 100, 0 100"/>
            </g>
        </g>
        <g transform="translate(70,80)">
            <g transform="translate(-1.5,-2) scale(.08)">
                <polygon points="50 15, 100 100, 0 100"/>
            </g>
        </g>
        <g transform="translate(30,70)">
            <g transform="translate(-1.5,-2) scale(.08)">
                <polygon points="50 15, 100 100, 0 100"/>
            </g>
        </g>

        <line x1="12.5" y1="12.5" x2="47.5" y2="22.5" opacity=".3"/>
        <line x1="82.5" y1="12.5" x2="47.5" y2="22.5" opacity=".3"/>
        <line x1="82.5" y1="12.5" x2="72.5" y2="82.5" opacity=".3"/>
        <line x1="32.5" y1="72.5" x2="72.5" y2="82.5" opacity=".3"/>
        <line x1="32.5" y1="72.5" x2="12.5" y2="12.5" opacity=".3"/>
    </g>
</svg> 